<?xml version="1.0" standalone="no"?>
<!DOCTYPE svg PUBLIC "-//W3C//DTD SVG 20010904//EN"
 "http://www.w3.org/TR/2001/REC-SVG-20010904/DTD/svg10.dtd">
<svg version="1.0" xmlns="http://www.w3.org/2000/svg"
 width="170.000000pt" height="87.000000pt" viewBox="0 0 170.000000 87.000000"
 preserveAspectRatio="xMidYMid meet">
<g transform="translate(0.000000,87.000000) scale(0.100000,-0.100000)"
fill="#000000" stroke="none">
<path d="M730 853 c-303 -51 -581 -281 -681 -563 -36 -101 -44 -159 -29 -205
20 -61 97 -93 153 -64 12 7 60 51 107 99 96 97 167 147 278 195 310 134 638
60 880 -200 78 -83 111 -105 160 -105 43 0 88 43 97 92 9 46 -16 142 -59 234
-125 265 -343 447 -604 504 -81 18 -233 25 -302 13z"/>
</g>
</svg>
